<svg width="480" height="345" viewBox="0 0 480 345" fill="none" xmlns="http://www.w3.org/2000/svg">
<g clip-path="url(#clip0)">
<path opacity="0.1" d="M240 345C372.548 345 480 332.016 480 316C480 299.984 372.548 287 240 287C107.452 287 0 299.984 0 316C0 332.016 107.452 345 240 345Z" fill="#8090FD"/>
<path d="M411 329C411 329 423.4 313.05 422.393 297.225C421.928 290.598 423.605 283.996 427.176 278.394C428.888 275.757 430.837 273.282 433 271" stroke="#535461" stroke-width="2" stroke-miterlimit="10"/>
<path d="M432.265 262.726C431.445 264.948 432.789 273 432.789 273C432.789 273 438.889 268.16 439.714 265.937C440.118 264.89 440.112 263.728 439.697 262.685C439.282 261.641 438.488 260.793 437.475 260.31C436.976 260.106 436.44 260.007 435.902 260.019C435.363 260.031 434.832 260.155 434.343 260.381C433.854 260.608 433.417 260.933 433.059 261.337C432.702 261.74 432.431 262.213 432.265 262.726Z" fill="#8090FD"/>
<path d="M421.076 272.368C421.506 274.805 426.69 281 426.69 281C426.69 281 429.383 273.063 428.954 270.626C428.842 269.882 428.54 269.18 428.077 268.587C427.614 267.994 427.006 267.53 426.311 267.241C425.641 266.988 424.911 266.936 424.212 267.091C423.513 267.245 422.873 267.6 422.372 268.112C421.829 268.665 421.428 269.34 421.202 270.081C420.975 270.822 420.931 271.606 421.072 272.368H421.076Z" fill="#8090FD"/>
<path d="M413.035 293C414.542 294.739 422 297 422 297C422 297 420.715 289.163 419.207 287.421C418.734 286.87 418.123 286.455 417.436 286.22C416.749 285.985 416.011 285.938 415.3 286.084C414.586 286.236 413.924 286.574 413.382 287.064C412.84 287.554 412.437 288.178 412.213 288.873C411.983 289.573 411.937 290.321 412.081 291.045C412.225 291.768 412.554 292.441 413.035 293Z" fill="#8090FD"/>
<path d="M410.633 309.47C411.859 311.46 419 315 419 315C419 315 419.031 307 417.8 305.009C417.412 304.377 416.865 303.859 416.212 303.507C415.56 303.155 414.826 302.981 414.085 303.004C413.344 303.027 412.622 303.245 411.993 303.636C411.363 304.028 410.848 304.579 410.5 305.233C410.15 305.889 409.978 306.626 410.001 307.369C410.025 308.113 410.243 308.837 410.633 309.47Z" fill="#8090FD"/>
<path d="M435.31 283.709C433.092 284.552 425 283.3 425 283.3C425 283.3 429.777 277.147 432 276.3C433.046 275.885 434.21 275.879 435.26 276.283C436.311 276.687 437.171 277.47 437.67 278.479C437.881 278.975 437.987 279.51 437.982 280.049C437.976 280.588 437.859 281.12 437.637 281.611C437.415 282.103 437.094 282.543 436.693 282.904C436.293 283.265 435.822 283.539 435.31 283.709Z" fill="#8090FD"/>
<path d="M431.935 302.992C429.487 303.185 422 299.757 422 299.757C422 299.757 428.71 295.209 431.158 295.016C431.918 294.945 432.683 295.062 433.387 295.357C434.091 295.652 434.711 296.115 435.194 296.706C435.64 297.262 435.914 297.936 435.983 298.645C436.052 299.354 435.913 300.068 435.583 300.7C435.219 301.36 434.693 301.918 434.055 302.32C433.417 302.722 432.688 302.956 431.935 303V302.992Z" fill="#8090FD"/>
<path d="M425.855 322.909C423.6 323.474 416 321.224 416 321.224C416 321.224 421.458 315.7 423.71 315.133C424.773 314.849 425.904 314.99 426.865 315.525C427.826 316.06 428.541 316.947 428.86 318C428.994 318.52 429.022 319.061 428.943 319.592C428.863 320.124 428.678 320.633 428.397 321.091C428.117 321.549 427.748 321.946 427.311 322.258C426.874 322.57 426.379 322.792 425.855 322.909Z" fill="#8090FD"/>
<path opacity="0.25" d="M432.265 262.726C431.445 264.948 432.789 273 432.789 273C432.789 273 438.889 268.16 439.714 265.937C440.118 264.89 440.112 263.728 439.697 262.685C439.282 261.641 438.488 260.793 437.475 260.31C436.976 260.106 436.44 260.007 435.902 260.019C435.363 260.031 434.832 260.155 434.343 260.381C433.854 260.608 433.417 260.933 433.059 261.337C432.702 261.74 432.431 262.213 432.265 262.726Z" fill="black"/>
<path opacity="0.25" d="M421.076 272.368C421.506 274.805 426.69 281 426.69 281C426.69 281 429.383 273.063 428.954 270.626C428.842 269.882 428.54 269.18 428.077 268.587C427.614 267.994 427.006 267.53 426.311 267.241C425.641 266.988 424.911 266.936 424.212 267.091C423.513 267.245 422.873 267.6 422.372 268.112C421.829 268.665 421.428 269.34 421.202 270.081C420.975 270.822 420.931 271.606 421.072 272.368H421.076Z" fill="black"/>
<path opacity="0.25" d="M413.035 293C414.542 294.739 422 297 422 297C422 297 420.715 289.163 419.207 287.421C418.734 286.87 418.123 286.455 417.436 286.22C416.749 285.985 416.011 285.938 415.3 286.084C414.586 286.236 413.924 286.574 413.382 287.064C412.84 287.554 412.437 288.178 412.213 288.873C411.983 289.573 411.937 290.321 412.081 291.045C412.225 291.768 412.554 292.441 413.035 293Z" fill="black"/>
<path opacity="0.25" d="M410.633 309.47C411.859 311.46 419 315 419 315C419 315 419.031 307 417.8 305.009C417.412 304.377 416.865 303.859 416.212 303.507C415.56 303.155 414.826 302.981 414.085 303.004C413.344 303.027 412.622 303.245 411.993 303.636C411.363 304.028 410.848 304.579 410.5 305.233C410.15 305.889 409.978 306.626 410.001 307.369C410.025 308.113 410.243 308.837 410.633 309.47Z" fill="black"/>
<path opacity="0.25" d="M435.31 283.709C433.092 284.552 425 283.3 425 283.3C425 283.3 429.777 277.147 432 276.3C433.046 275.885 434.21 275.879 435.26 276.283C436.311 276.687 437.171 277.47 437.67 278.479C437.881 278.975 437.987 279.51 437.982 280.049C437.976 280.588 437.859 281.12 437.637 281.611C437.415 282.103 437.094 282.543 436.693 282.904C436.293 283.265 435.822 283.539 435.31 283.709Z" fill="black"/>
<path opacity="0.25" d="M431.935 302.992C429.487 303.185 422 299.757 422 299.757C422 299.757 428.71 295.209 431.158 295.016C431.918 294.945 432.683 295.062 433.387 295.357C434.091 295.652 434.711 296.115 435.194 296.706C435.64 297.262 435.914 297.936 435.983 298.645C436.052 299.354 435.913 300.068 435.583 300.7C435.219 301.36 434.693 301.918 434.055 302.32C433.417 302.722 432.688 302.956 431.935 303V302.992Z" fill="black"/>
<path opacity="0.25" d="M425.855 322.909C423.6 323.474 416 321.224 416 321.224C416 321.224 421.458 315.7 423.71 315.133C424.773 314.849 425.904 314.99 426.865 315.525C427.826 316.06 428.541 316.947 428.86 318C428.994 318.52 429.022 319.061 428.943 319.592C428.863 320.124 428.678 320.633 428.397 321.091C428.117 321.549 427.748 321.946 427.311 322.258C426.874 322.57 426.379 322.792 425.855 322.909Z" fill="black"/>
<path d="M410 329C410 329 427.987 319.5 433.493 304.625C435.768 298.365 440.014 293.012 445.593 289.373C448.256 287.662 451.07 286.198 454 285" stroke="#535461" stroke-width="2" stroke-miterlimit="10"/>
<path d="M457.643 276.251C455.933 277.945 454 286 454 286C454 286 461.986 284.225 463.7 282.53C464.522 281.71 464.99 280.601 465.003 279.44C465.016 278.279 464.574 277.159 463.77 276.321C463.376 275.909 462.903 275.58 462.38 275.353C461.857 275.127 461.294 275.006 460.723 275C460.153 274.993 459.588 275.1 459.059 275.315C458.531 275.53 458.051 275.848 457.647 276.25L457.643 276.251Z" fill="#8090FD"/>
<path d="M444.063 280.52C443.574 282.952 446.075 291 446.075 291C446.075 291 451.412 284.942 451.9 282.51C452.06 281.749 452.035 280.96 451.828 280.21C451.621 279.461 451.237 278.771 450.709 278.2C450.223 277.671 449.594 277.295 448.898 277.117C448.202 276.94 447.47 276.968 446.79 277.2C446.087 277.47 445.466 277.918 444.988 278.5C444.51 279.082 444.191 279.778 444.063 280.52Z" fill="#8090FD"/>
<path d="M428.188 296.544C428.859 298.786 434.639 304 434.639 304C434.639 304 436.527 296.213 435.856 293.972C435.658 293.274 435.279 292.641 434.758 292.137C434.236 291.632 433.591 291.275 432.887 291.1C432.191 290.942 431.466 290.978 430.79 291.205C430.113 291.432 429.513 291.84 429.053 292.386C428.573 292.952 428.243 293.629 428.092 294.355C427.941 295.081 427.974 295.834 428.188 296.544Z" fill="#8090FD"/>
<path d="M418.038 311.078C418.34 313.522 423.188 320 423.188 320C423.188 320 426.282 312.3 425.979 309.857C425.903 309.108 425.637 308.391 425.207 307.774C424.776 307.157 424.195 306.66 423.519 306.33C422.869 306.036 422.148 305.937 421.443 306.045C420.738 306.153 420.08 306.464 419.549 306.94C418.98 307.455 418.545 308.101 418.282 308.822C418.018 309.543 417.935 310.317 418.038 311.078Z" fill="#8090FD"/>
<path d="M451.445 297C448.993 296.941 442 292.776 442 292.776C442 292.776 449.224 288.943 451.675 289C452.228 288.985 452.779 289.079 453.296 289.277C453.813 289.474 454.286 289.772 454.688 290.153C455.09 290.534 455.412 290.99 455.637 291.496C455.863 292.002 455.986 292.547 456 293.1C455.907 294.219 455.376 295.256 454.524 295.986C453.671 296.716 452.565 297.08 451.445 297Z" fill="#8090FD"/>
<path d="M441.334 312.782C439.1 312.063 434 306.175 434 306.175C434 306.175 441.87 304.457 444.106 305.175C444.624 305.323 445.107 305.574 445.524 305.915C445.942 306.255 446.286 306.677 446.535 307.155C446.784 307.633 446.934 308.156 446.974 308.693C447.014 309.231 446.944 309.771 446.769 310.28C446.355 311.312 445.56 312.147 444.55 312.612C443.539 313.077 442.389 313.137 441.335 312.78L441.334 312.782Z" fill="#8090FD"/>
<path d="M427.808 328.948C425.367 328.6 419 323.612 419 323.612C419 323.612 426.793 320.677 429.235 321.029C429.785 321.076 430.32 321.234 430.807 321.493C431.295 321.752 431.725 322.107 432.071 322.537C432.418 322.967 432.673 323.463 432.823 323.994C432.973 324.525 433.013 325.082 432.942 325.629C432.673 326.734 431.991 327.694 431.036 328.312C430.081 328.929 428.926 329.157 427.808 328.948Z" fill="#8090FD"/>
<path opacity="0.1" d="M272.974 40.889C249.254 40.064 226.662 32.4 205.089 24C183.516 15.6 162.148 6.319 139 1.873C124.105 -0.986 107.076 -1.391 95.078 6.6C83.532 14.3 79.8 27.581 77.8 39.9C76.291 49.172 75.4 58.93 79.539 67.611C82.4 73.642 87.5 78.707 91.027 84.479C103.292 104.564 94.627 129.332 81.327 148.944C75.092 158.144 67.86 166.92 63.049 176.713C58.238 186.506 56.012 197.727 60.221 207.713C64.393 217.613 74.337 225.052 85.107 230.283C106.983 240.907 132.761 243.948 157.898 245.67C213.542 249.482 269.484 247.832 325.276 246.179C345.923 245.567 366.662 244.947 386.976 241.75C398.256 239.974 409.901 237.156 418.09 230.35C428.49 221.713 431.062 207.089 424.097 196.259C412.413 178.094 380.106 173.582 371.94 154.087C367.44 143.356 372.061 131.404 378.594 121.452C392.608 100.103 416.094 81.374 417.336 56.971C418.186 40.211 406.894 23.427 389.436 15.497C371.136 7.185 345.756 8.231 332.255 21.99C318.35 36.166 293.917 41.617 272.974 40.889Z" fill="#8090FD"/>
<path d="M233 302C241.837 302 249 294.389 249 285C249 275.611 241.837 268 233 268C224.163 268 217 275.611 217 285C217 294.389 224.163 302 233 302Z" fill="#FBD56F"/>
<path opacity="0.1" d="M233 302C241.837 302 249 294.389 249 285C249 275.611 241.837 268 233 268C224.163 268 217 275.611 217 285C217 294.389 224.163 302 233 302Z" fill="black"/>
<path d="M236 302C244.837 302 252 294.613 252 285.5C252 276.387 244.837 269 236 269C227.163 269 220 276.387 220 285.5C220 294.613 227.163 302 236 302Z" fill="#FBD56F"/>
<path d="M242.225 301.275L240.571 300.37C240.142 302.146 239.967 303.975 240.051 305.8C240.077 306.031 240.174 306.248 240.328 306.422C240.482 306.596 240.686 306.718 240.912 306.772C244.712 307.7 262.844 311.653 275.312 306.085C275.491 306.006 275.647 305.881 275.763 305.723C275.879 305.565 275.952 305.38 275.975 305.185C276.012 303.56 275.81 301.939 275.375 300.373C274.9 299.169 242.225 301.275 242.225 301.275Z" fill="#FBD56F"/>
<path opacity="0.1" d="M242.225 301.275L240.571 300.37C240.142 302.146 239.967 303.975 240.051 305.8C240.077 306.031 240.174 306.248 240.328 306.422C240.482 306.596 240.686 306.718 240.912 306.772C244.712 307.7 262.844 311.653 275.312 306.085C275.491 306.006 275.647 305.881 275.763 305.723C275.879 305.565 275.952 305.38 275.975 305.185C276.012 303.56 275.81 301.939 275.375 300.373C274.9 299.169 242.225 301.275 242.225 301.275Z" fill="black"/>
<path d="M258.5 303C268.165 303 276 301.433 276 299.5C276 297.567 268.165 296 258.5 296C248.835 296 241 297.567 241 299.5C241 301.433 248.835 303 258.5 303Z" fill="#FBD56F"/>
<path d="M249.225 294.275L247.571 293.37C247.142 295.146 246.967 296.975 247.051 298.8C247.077 299.031 247.174 299.248 247.328 299.422C247.482 299.596 247.686 299.718 247.912 299.772C251.712 300.7 269.844 304.653 282.312 299.085C282.491 299.006 282.647 298.881 282.763 298.723C282.879 298.565 282.952 298.38 282.975 298.185C283.012 296.56 282.81 294.939 282.375 293.373C281.9 292.169 249.225 294.275 249.225 294.275Z" fill="#FBD56F"/>
<path opacity="0.1" d="M249.225 294.275L247.571 293.37C247.142 295.146 246.967 296.975 247.051 298.8C247.077 299.031 247.174 299.248 247.328 299.422C247.482 299.596 247.686 299.718 247.912 299.772C251.712 300.7 269.844 304.653 282.312 299.085C282.491 299.006 282.647 298.881 282.763 298.723C282.879 298.565 282.952 298.38 282.975 298.185C283.012 296.56 282.81 294.939 282.375 293.373C281.9 292.169 249.225 294.275 249.225 294.275Z" fill="black"/>
<path d="M265.5 298C275.165 298 283 296.433 283 294.5C283 292.567 275.165 291 265.5 291C255.835 291 248 292.567 248 294.5C248 296.433 255.835 298 265.5 298Z" fill="#FBD56F"/>
<path d="M255.225 288.275L253.571 287.37C253.142 289.146 252.967 290.975 253.051 292.8C253.077 293.031 253.174 293.248 253.328 293.422C253.482 293.596 253.686 293.718 253.912 293.772C257.712 294.7 275.844 298.653 288.312 293.085C288.491 293.006 288.647 292.881 288.763 292.723C288.879 292.565 288.952 292.38 288.975 292.185C289.012 290.56 288.81 288.939 288.375 287.373C287.9 286.169 255.225 288.275 255.225 288.275Z" fill="#FBD56F"/>
<path opacity="0.1" d="M255.225 288.275L253.571 287.37C253.142 289.146 252.967 290.975 253.051 292.8C253.077 293.031 253.174 293.248 253.328 293.422C253.482 293.596 253.686 293.718 253.912 293.772C257.712 294.7 275.844 298.653 288.312 293.085C288.491 293.006 288.647 292.881 288.763 292.723C288.879 292.565 288.952 292.38 288.975 292.185C289.012 290.56 288.81 288.939 288.375 287.373C287.9 286.169 255.225 288.275 255.225 288.275Z" fill="black"/>
<path d="M270.5 290C280.165 290 288 288.433 288 286.5C288 284.567 280.165 283 270.5 283C260.835 283 253 284.567 253 286.5C253 288.433 260.835 290 270.5 290Z" fill="#FBD56F"/>
<path d="M248.225 279.275L246.571 278.37C246.142 280.146 245.967 281.975 246.051 283.8C246.077 284.031 246.174 284.248 246.328 284.422C246.482 284.596 246.686 284.718 246.912 284.772C250.712 285.7 268.844 289.653 281.312 284.085C281.491 284.006 281.647 283.881 281.763 283.723C281.879 283.565 281.952 283.38 281.975 283.185C282.012 281.56 281.81 279.939 281.375 278.373C280.9 277.169 248.225 279.275 248.225 279.275Z" fill="#FBD56F"/>
<path opacity="0.1" d="M248.225 279.275L246.571 278.37C246.142 280.146 245.967 281.975 246.051 283.8C246.077 284.031 246.174 284.248 246.328 284.422C246.482 284.596 246.686 284.718 246.912 284.772C250.712 285.7 268.844 289.653 281.312 284.085C281.491 284.006 281.647 283.881 281.763 283.723C281.879 283.565 281.952 283.38 281.975 283.185C282.012 281.56 281.81 279.939 281.375 278.373C280.9 277.169 248.225 279.275 248.225 279.275Z" fill="black"/>
<path d="M264.5 282C274.165 282 282 280.433 282 278.5C282 276.567 274.165 275 264.5 275C254.835 275 247 276.567 247 278.5C247 280.433 254.835 282 264.5 282Z" fill="#FBD56F"/>
<path d="M263.225 273.275L261.571 272.37C261.142 274.146 260.967 275.975 261.051 277.8C261.077 278.031 261.174 278.248 261.328 278.422C261.482 278.596 261.686 278.718 261.912 278.772C265.712 279.7 283.844 283.653 296.312 278.085C296.491 278.006 296.647 277.881 296.763 277.723C296.879 277.565 296.952 277.38 296.975 277.185C297.012 275.56 296.81 273.939 296.375 272.373C295.9 271.169 263.225 273.275 263.225 273.275Z" fill="#FBD56F"/>
<path opacity="0.1" d="M263.225 273.275L261.571 272.37C261.142 274.146 260.967 275.975 261.051 277.8C261.077 278.031 261.174 278.248 261.328 278.422C261.482 278.596 261.686 278.718 261.912 278.772C265.712 279.7 283.844 283.653 296.312 278.085C296.491 278.006 296.647 277.881 296.763 277.723C296.879 277.565 296.952 277.38 296.975 277.185C297.012 275.56 296.81 273.939 296.375 272.373C295.9 271.169 263.225 273.275 263.225 273.275Z" fill="black"/>
<path d="M278.5 276C288.165 276 296 274.433 296 272.5C296 270.567 288.165 269 278.5 269C268.835 269 261 270.567 261 272.5C261 274.433 268.835 276 278.5 276Z" fill="#FBD56F"/>
<path d="M253.225 269.275L251.571 268.37C251.142 270.146 250.967 271.975 251.051 273.8C251.077 274.031 251.174 274.248 251.328 274.422C251.482 274.596 251.686 274.718 251.912 274.772C255.712 275.7 273.844 279.653 286.312 274.085C286.491 274.006 286.647 273.881 286.763 273.723C286.879 273.565 286.952 273.38 286.975 273.185C287.012 271.56 286.81 269.939 286.375 268.373C285.9 267.169 253.225 269.275 253.225 269.275Z" fill="#FBD56F"/>
<path opacity="0.1" d="M253.225 269.275L251.571 268.37C251.142 270.146 250.967 271.975 251.051 273.8C251.077 274.031 251.174 274.248 251.328 274.422C251.482 274.596 251.686 274.718 251.912 274.772C255.712 275.7 273.844 279.653 286.312 274.085C286.491 274.006 286.647 273.881 286.763 273.723C286.879 273.565 286.952 273.38 286.975 273.185C287.012 271.56 286.81 269.939 286.375 268.373C285.9 267.169 253.225 269.275 253.225 269.275Z" fill="black"/>
<path d="M268.5 272C278.165 272 286 270.433 286 268.5C286 266.567 278.165 265 268.5 265C258.835 265 251 266.567 251 268.5C251 270.433 258.835 272 268.5 272Z" fill="#FBD56F"/>
<path d="M260.225 260.275L258.571 259.37C258.142 261.146 257.967 262.975 258.051 264.8C258.077 265.031 258.174 265.248 258.328 265.422C258.482 265.596 258.686 265.718 258.912 265.772C262.712 266.7 280.844 270.653 293.312 265.085C293.491 265.006 293.647 264.881 293.763 264.723C293.879 264.565 293.952 264.38 293.975 264.185C294.012 262.56 293.81 260.939 293.375 259.373C292.9 258.169 260.225 260.275 260.225 260.275Z" fill="#FBD56F"/>
<path opacity="0.1" d="M260.225 260.275L258.571 259.37C258.142 261.146 257.967 262.975 258.051 264.8C258.077 265.031 258.174 265.248 258.328 265.422C258.482 265.596 258.686 265.718 258.912 265.772C262.712 266.7 280.844 270.653 293.312 265.085C293.491 265.006 293.647 264.881 293.763 264.723C293.879 264.565 293.952 264.38 293.975 264.185C294.012 262.56 293.81 260.939 293.375 259.373C292.9 258.169 260.225 260.275 260.225 260.275Z" fill="black"/>
<path d="M276.5 263C286.165 263 294 261.433 294 259.5C294 257.567 286.165 256 276.5 256C266.835 256 259 257.567 259 259.5C259 261.433 266.835 263 276.5 263Z" fill="#FBD56F"/>
<path d="M263.225 250.275L261.571 249.37C261.142 251.146 260.967 252.975 261.051 254.8C261.077 255.031 261.174 255.248 261.328 255.422C261.482 255.596 261.686 255.718 261.912 255.772C265.712 256.7 283.844 260.653 296.312 255.085C296.491 255.006 296.647 254.881 296.763 254.723C296.879 254.565 296.952 254.38 296.975 254.185C297.012 252.56 296.81 250.939 296.375 249.373C295.9 248.169 263.225 250.275 263.225 250.275Z" fill="#FBD56F"/>
<path opacity="0.1" d="M263.225 250.275L261.571 249.37C261.142 251.146 260.967 252.975 261.051 254.8C261.077 255.031 261.174 255.248 261.328 255.422C261.482 255.596 261.686 255.718 261.912 255.772C265.712 256.7 283.844 260.653 296.312 255.085C296.491 255.006 296.647 254.881 296.763 254.723C296.879 254.565 296.952 254.38 296.975 254.185C297.012 252.56 296.81 250.939 296.375 249.373C295.9 248.169 263.225 250.275 263.225 250.275Z" fill="black"/>
<path d="M278.5 253C288.165 253 296 251.433 296 249.5C296 247.567 288.165 246 278.5 246C268.835 246 261 247.567 261 249.5C261 251.433 268.835 253 278.5 253Z" fill="#FBD56F"/>
<path d="M293.225 303.275L291.571 302.37C291.142 304.146 290.967 305.975 291.051 307.8C291.077 308.031 291.174 308.248 291.328 308.422C291.482 308.596 291.686 308.718 291.912 308.772C295.712 309.7 313.844 313.653 326.312 308.085C326.491 308.006 326.647 307.881 326.763 307.723C326.879 307.565 326.952 307.38 326.975 307.185C327.012 305.56 326.81 303.939 326.375 302.373C325.9 301.169 293.225 303.275 293.225 303.275Z" fill="#FBD56F"/>
<path opacity="0.1" d="M293.225 303.275L291.571 302.37C291.142 304.146 290.967 305.975 291.051 307.8C291.077 308.031 291.174 308.248 291.328 308.422C291.482 308.596 291.686 308.718 291.912 308.772C295.712 309.7 313.844 313.653 326.312 308.085C326.491 308.006 326.647 307.881 326.763 307.723C326.879 307.565 326.952 307.38 326.975 307.185C327.012 305.56 326.81 303.939 326.375 302.373C325.9 301.169 293.225 303.275 293.225 303.275Z" fill="black"/>
<path d="M309.5 306C319.165 306 327 304.433 327 302.5C327 300.567 319.165 299 309.5 299C299.835 299 292 300.567 292 302.5C292 304.433 299.835 306 309.5 306Z" fill="#FBD56F"/>
<path d="M299.225 295.275L297.571 294.37C297.142 296.146 296.967 297.975 297.051 299.8C297.077 300.031 297.174 300.248 297.328 300.422C297.482 300.596 297.686 300.718 297.912 300.772C301.712 301.7 319.844 305.653 332.312 300.085C332.491 300.006 332.647 299.881 332.763 299.723C332.879 299.565 332.952 299.38 332.975 299.185C333.012 297.56 332.81 295.939 332.375 294.373C331.9 293.169 299.225 295.275 299.225 295.275Z" fill="#FBD56F"/>
<path opacity="0.1" d="M299.225 295.275L297.571 294.37C297.142 296.146 296.967 297.975 297.051 299.8C297.077 300.031 297.174 300.248 297.328 300.422C297.482 300.596 297.686 300.718 297.912 300.772C301.712 301.7 319.844 305.653 332.312 300.085C332.491 300.006 332.647 299.881 332.763 299.723C332.879 299.565 332.952 299.38 332.975 299.185C333.012 297.56 332.81 295.939 332.375 294.373C331.9 293.169 299.225 295.275 299.225 295.275Z" fill="black"/>
<path d="M315.5 298C325.165 298 333 296.433 333 294.5C333 292.567 325.165 291 315.5 291C305.835 291 298 292.567 298 294.5C298 296.433 305.835 298 315.5 298Z" fill="#FBD56F"/>
<path d="M292.225 288.275L290.571 287.37C290.142 289.146 289.967 290.975 290.051 292.8C290.077 293.031 290.174 293.248 290.328 293.422C290.482 293.596 290.686 293.718 290.912 293.772C294.712 294.7 312.844 298.653 325.312 293.085C325.491 293.006 325.647 292.881 325.763 292.723C325.879 292.565 325.952 292.38 325.975 292.185C326.012 290.56 325.81 288.939 325.375 287.373C324.9 286.169 292.225 288.275 292.225 288.275Z" fill="#FBD56F"/>
<path opacity="0.1" d="M292.225 288.275L290.571 287.37C290.142 289.146 289.967 290.975 290.051 292.8C290.077 293.031 290.174 293.248 290.328 293.422C290.482 293.596 290.686 293.718 290.912 293.772C294.712 294.7 312.844 298.653 325.312 293.085C325.491 293.006 325.647 292.881 325.763 292.723C325.879 292.565 325.952 292.38 325.975 292.185C326.012 290.56 325.81 288.939 325.375 287.373C324.9 286.169 292.225 288.275 292.225 288.275Z" fill="black"/>
<path d="M308.5 290C318.165 290 326 288.433 326 286.5C326 284.567 318.165 283 308.5 283C298.835 283 291 284.567 291 286.5C291 288.433 298.835 290 308.5 290Z" fill="#FBD56F"/>
<path d="M308.225 281.275L306.571 280.37C306.142 282.146 305.967 283.975 306.051 285.8C306.077 286.031 306.174 286.248 306.328 286.422C306.482 286.596 306.686 286.718 306.912 286.772C310.712 287.7 328.844 291.653 341.312 286.085C341.491 286.006 341.647 285.881 341.763 285.723C341.879 285.565 341.952 285.38 341.975 285.185C342.012 283.56 341.81 281.939 341.375 280.373C340.9 279.169 308.225 281.275 308.225 281.275Z" fill="#FBD56F"/>
<path opacity="0.1" d="M308.225 281.275L306.571 280.37C306.142 282.146 305.967 283.975 306.051 285.8C306.077 286.031 306.174 286.248 306.328 286.422C306.482 286.596 306.686 286.718 306.912 286.772C310.712 287.7 328.844 291.653 341.312 286.085C341.491 286.006 341.647 285.881 341.763 285.723C341.879 285.565 341.952 285.38 341.975 285.185C342.012 283.56 341.81 281.939 341.375 280.373C340.9 279.169 308.225 281.275 308.225 281.275Z" fill="black"/>
<path d="M323.5 284C333.165 284 341 282.433 341 280.5C341 278.567 333.165 277 323.5 277C313.835 277 306 278.567 306 280.5C306 282.433 313.835 284 323.5 284Z" fill="#FBD56F"/>
<path d="M297.225 277.275L295.571 276.37C295.142 278.146 294.967 279.975 295.051 281.8C295.077 282.031 295.174 282.248 295.328 282.422C295.482 282.596 295.686 282.718 295.912 282.772C299.712 283.7 317.844 287.653 330.312 282.085C330.491 282.006 330.647 281.881 330.763 281.723C330.879 281.565 330.952 281.38 330.975 281.185C331.012 279.56 330.81 277.939 330.375 276.373C329.9 275.169 297.225 277.275 297.225 277.275Z" fill="#FBD56F"/>
<path opacity="0.1" d="M297.225 277.275L295.571 276.37C295.142 278.146 294.967 279.975 295.051 281.8C295.077 282.031 295.174 282.248 295.328 282.422C295.482 282.596 295.686 282.718 295.912 282.772C299.712 283.7 317.844 287.653 330.312 282.085C330.491 282.006 330.647 281.881 330.763 281.723C330.879 281.565 330.952 281.38 330.975 281.185C331.012 279.56 330.81 277.939 330.375 276.373C329.9 275.169 297.225 277.275 297.225 277.275Z" fill="black"/>
<path d="M313.5 279C323.165 279 331 277.433 331 275.5C331 273.567 323.165 272 313.5 272C303.835 272 296 273.567 296 275.5C296 277.433 303.835 279 313.5 279Z" fill="#FBD56F"/>
<path d="M304.225 268.275L302.571 267.37C302.142 269.146 301.967 270.975 302.051 272.8C302.077 273.031 302.174 273.248 302.328 273.422C302.482 273.596 302.686 273.718 302.912 273.772C306.712 274.7 324.844 278.653 337.312 273.085C337.491 273.006 337.647 272.881 337.763 272.723C337.879 272.565 337.952 272.38 337.975 272.185C338.012 270.56 337.81 268.939 337.375 267.373C336.9 266.169 304.225 268.275 304.225 268.275Z" fill="#FBD56F"/>
<path opacity="0.1" d="M304.225 268.275L302.571 267.37C302.142 269.146 301.967 270.975 302.051 272.8C302.077 273.031 302.174 273.248 302.328 273.422C302.482 273.596 302.686 273.718 302.912 273.772C306.712 274.7 324.844 278.653 337.312 273.085C337.491 273.006 337.647 272.881 337.763 272.723C337.879 272.565 337.952 272.38 337.975 272.185C338.012 270.56 337.81 268.939 337.375 267.373C336.9 266.169 304.225 268.275 304.225 268.275Z" fill="black"/>
<path d="M319.5 271C329.165 271 337 269.433 337 267.5C337 265.567 329.165 264 319.5 264C309.835 264 302 265.567 302 267.5C302 269.433 309.835 271 319.5 271Z" fill="#FBD56F"/>
<path d="M308.225 258.275L306.571 257.37C306.142 259.146 305.967 260.975 306.051 262.8C306.077 263.031 306.174 263.248 306.328 263.422C306.482 263.596 306.686 263.718 306.912 263.772C310.712 264.7 328.844 268.653 341.312 263.085C341.491 263.006 341.647 262.881 341.763 262.723C341.879 262.565 341.952 262.38 341.975 262.185C342.012 260.56 341.81 258.939 341.375 257.373C340.9 256.169 308.225 258.275 308.225 258.275Z" fill="#FBD56F"/>
<path opacity="0.1" d="M308.225 258.275L306.571 257.37C306.142 259.146 305.967 260.975 306.051 262.8C306.077 263.031 306.174 263.248 306.328 263.422C306.482 263.596 306.686 263.718 306.912 263.772C310.712 264.7 328.844 268.653 341.312 263.085C341.491 263.006 341.647 262.881 341.763 262.723C341.879 262.565 341.952 262.38 341.975 262.185C342.012 260.56 341.81 258.939 341.375 257.373C340.9 256.169 308.225 258.275 308.225 258.275Z" fill="black"/>
<path d="M323.5 261C333.165 261 341 259.433 341 257.5C341 255.567 333.165 254 323.5 254C313.835 254 306 255.567 306 257.5C306 259.433 313.835 261 323.5 261Z" fill="#FBD56F"/>
<path d="M321.023 336.9L305.073 329.867L306.124 325.613C306.124 325.613 306.524 317.298 311.102 313.098C311.158 313.047 311.216 312.998 311.273 312.95C310.773 311.401 310.485 309.791 310.419 308.164L322.337 284.81C322.337 284.81 326.193 280.382 326.018 277.691C325.843 275 332.328 268.491 332.328 268.491C330.096 268.857 327.807 268.36 325.928 267.101C325.928 267.101 312.607 260.937 307.437 260.937C304.103 260.937 303.611 254.551 303.682 250.012C303.682 249.854 303.688 249.699 303.692 249.547V249.484C302.923 250.069 302.053 250.51 301.126 250.784C298.584 251.391 301.126 247.224 301.126 247.224C301.126 247.224 302.791 244.792 302.791 243.924C302.791 243.056 304.891 241.146 304.891 241.146L307.17 232.725C307.17 232.725 306.995 229.512 307.87 228.644C308.745 227.776 309.009 225.432 309.009 225.432C309.009 225.432 308.658 220.483 309.885 218.921C310.578 218.039 311.633 216.438 312.421 215.21L312.637 214.873C312.392 213.565 311.839 212.334 311.024 211.282C309.534 209.632 310.674 206.842 310.674 206.842C310.674 206.842 309.264 190.655 310.221 185C309.747 185.157 309.285 185.35 308.841 185.578C309.111 185.388 309.336 185.141 309.498 184.854C309.214 184.964 308.936 185.089 308.666 185.23C309.893 184.535 311.466 179.24 311.466 179.24C314.621 170.558 317.425 168.561 319.354 166.477C320.618 165.113 325.227 163.971 328.254 163.349C329.711 163.063 331.216 163.148 332.632 163.596C332.841 163.671 333.063 163.701 333.285 163.686C333.78 163.628 334.28 163.628 334.775 163.686C334.927 163.686 335.087 163.686 335.253 163.694C335.8 163.693 336.345 163.753 336.878 163.872C337.423 164.034 338.306 161.945 338.729 159.862C338.759 159.712 338.787 159.562 338.813 159.411C336.758 157.737 335.181 155.55 334.243 153.071C333.641 151.479 333.32 149.793 333.296 148.091C333.287 147.999 333.287 147.904 333.287 147.813C333.287 147.76 333.287 147.708 333.287 147.655C332.826 147.884 332.347 148.075 331.855 148.224C331.706 148.27 331.571 148.303 331.441 148.33L331.341 148.348C331.252 148.363 331.162 148.375 331.071 148.382C331.043 148.382 331.013 148.387 330.986 148.388C330.891 148.392 330.797 148.387 330.703 148.375C330.686 148.372 330.67 148.369 330.654 148.364C330.593 148.354 330.533 148.337 330.475 148.315C330.449 148.306 330.424 148.295 330.399 148.282C330.36 148.263 330.322 148.239 330.287 148.213C330.266 148.199 330.245 148.184 330.226 148.167C330.183 148.128 330.146 148.084 330.114 148.036C330.097 148.007 330.082 147.977 330.069 147.946C330.056 147.92 330.044 147.893 330.035 147.865C330.022 147.827 330.011 147.788 330.003 147.749C330.003 147.727 329.996 147.706 329.992 147.683C329.97 147.506 329.977 147.327 330.013 147.153V147.136C330.2 146.386 330.572 145.694 331.094 145.124C331.807 144.463 332.36 143.649 332.712 142.743C332.856 142.173 332.84 141.573 332.664 141.012C332.637 140.912 332.608 140.821 332.575 140.726C332.557 140.675 332.538 140.623 332.518 140.572C332.487 140.491 332.454 140.41 332.418 140.33C332.396 140.281 332.377 140.23 332.354 140.182C332.303 140.069 332.249 139.955 332.192 139.843L332.083 139.635C332.056 139.585 332.03 139.535 332.003 139.485C331.674 138.885 331.303 138.285 330.989 137.696C330.237 136.246 329.852 134.634 329.867 133C329.811 132.333 330.017 131.671 330.441 131.154C330.818 130.836 331.274 130.625 331.761 130.546C333.397 130.155 335.102 130.036 336.694 129.496C337.505 129.278 338.254 128.872 338.88 128.312C339.506 127.752 339.993 127.053 340.3 126.271C340.852 124.424 339.979 122.081 341.353 120.72C341.768 120.367 342.269 120.13 342.805 120.033C343.341 119.935 343.893 119.982 344.405 120.167C345.422 120.548 346.362 121.109 347.18 121.823L354.52 127.5C355.342 128.253 356.343 128.784 357.428 129.042C358.089 129.092 358.753 129.08 359.412 129.005C360.604 128.939 361.795 129.152 362.89 129.628C363.985 130.103 364.954 130.828 365.72 131.744C366.394 132.614 366.826 133.646 366.975 134.736C366.975 134.754 366.975 134.772 366.98 134.79C366.997 134.914 367.01 135.038 367.019 135.163C367.019 135.198 367.019 135.233 367.025 135.268C367.031 135.385 367.034 135.502 367.034 135.619C367.034 135.662 367.034 135.705 367.034 135.748C367.034 135.855 367.025 135.962 367.017 136.068C367.017 136.12 367.009 136.168 367.004 136.224C366.994 136.324 366.981 136.415 366.965 136.509C366.956 136.569 366.947 136.63 366.936 136.69C366.92 136.774 366.9 136.857 366.881 136.939C366.862 137.021 366.85 137.077 366.831 137.144C366.812 137.211 366.788 137.284 366.765 137.355C366.742 137.426 366.716 137.509 366.689 137.584C366.668 137.64 366.643 137.695 366.62 137.751C366.585 137.837 366.551 137.924 366.51 138.008C366.5 138.029 366.488 138.048 366.478 138.068C366.423 138.18 366.367 138.292 366.303 138.401C365.632 139.537 364.537 140.46 364.211 141.732C364.211 141.75 364.198 141.765 364.194 141.783C363.802 143.421 364.819 145.022 365.303 146.636C365.44 147.093 365.535 147.562 365.586 148.036V148.03C365.591 148.078 365.592 148.13 365.597 148.173C365.608 148.289 365.617 148.405 365.622 148.521C365.622 148.597 365.627 148.674 365.628 148.75C365.628 148.85 365.628 148.941 365.628 149.037C365.628 149.133 365.628 149.203 365.62 149.286C365.612 149.369 365.608 149.463 365.601 149.551C365.594 149.639 365.587 149.723 365.577 149.808C365.567 149.893 365.552 149.99 365.538 150.08C365.526 150.153 365.519 150.227 365.506 150.299C365.43 150.717 365.031 151.192 364.706 151.199C364.649 151.201 364.592 151.187 364.541 151.159C364.491 151.131 364.449 151.091 364.42 151.041C364.873 151.919 364.042 153.031 363.061 153.2C362.939 153.22 362.816 153.231 362.693 153.233C362.661 153.233 362.63 153.233 362.598 153.228C362.541 153.37 362.486 153.512 362.423 153.654C361.291 156.304 359.422 158.573 357.039 160.192C356.969 160.411 356.898 160.633 356.826 160.861C356.175 162.905 355.452 165.287 354.84 167.561C356.241 167.395 357.653 167.352 359.061 167.432C362.04 167.519 364.669 172.381 364.669 172.381C364.669 172.381 369.314 176.895 369.669 178.111C370.024 179.327 374.927 184.188 374.927 184.188C374.917 185.186 374.812 186.182 374.613 187.16L374.999 187.515C375.741 188.201 376.599 189.015 377.206 189.658C378.52 191.047 383.252 200.423 383.252 200.423C384.715 202.169 385.897 204.132 386.757 206.241C387.634 208.932 389.123 212.753 389.123 212.753C389.123 212.753 391.223 221.695 391.577 223.865C391.931 226.035 393.242 238.624 393.242 238.624C393.242 238.624 392.642 240.251 391.605 242.424L392.084 242.471C393.684 242.624 394.732 242.705 394.732 242.705C394.732 242.705 402.62 243.14 402.444 256.597C402.268 270.054 401.567 276.652 401.567 276.652C401.567 276.652 400.516 287.765 401.304 289.501C402.092 291.237 401.655 298.701 401.655 298.701C401.655 298.701 402.181 308.511 401.48 310.161C400.779 311.811 401.567 318.761 401.567 318.761L400.732 318.779C400.883 318.944 401.04 319.114 401.201 319.289C403.217 321.464 405.921 324.168 407.701 325.099C410.856 326.749 410.943 327.699 413.401 327.791C415.859 327.883 422.427 329.614 421.989 331.698C421.551 333.782 414.189 336.386 408.844 336.386C403.499 336.386 379.223 335.952 379.223 335.952V330.917C379.223 330.917 378.445 324.541 379.803 320.653C379.875 320.448 379.955 320.253 380.04 320.061C379.93 320.091 379.832 320.121 379.749 320.152C379.749 320.152 380.625 315.29 379.661 314.162C378.697 313.034 381.061 311.123 381.061 311.123L380.361 307.737L381.4 291.842C381.593 290.237 381.443 288.61 380.962 287.067C380.173 285.245 380.699 271.093 381.4 268.141C382.101 265.189 382.451 261.716 380.7 262.497C379.422 263.067 367.987 265.114 361.106 266.246C360.57 266.336 360.061 266.418 359.589 266.494C358.42 268.585 356.836 270.415 354.935 271.873C354.935 271.873 349.677 277.43 349.94 278.514C350.203 279.598 343.98 285.677 343.98 285.677C343.98 285.677 340.3 290.977 340.563 292.015C340.826 293.053 336.094 300.957 336.094 300.957C336.094 300.957 333.902 307.207 332.851 307.816C331.8 308.425 331.8 310.507 331.8 310.507C331.8 310.507 330.222 315.716 329.17 316.237L328.627 319.265L328.727 319.382C331.071 322.021 334.851 326.182 335.914 326.83C337.492 327.785 338.631 329.868 343.363 330.65C348.095 331.432 348.884 335.425 345.291 336.38C343.408 336.88 336.835 336.999 331.002 336.999C325.711 337 321.023 336.9 321.023 336.9Z" fill="url(#paint0_linear)"/>
<path d="M379.217 329.843V334.591C379.217 334.591 402.922 335 408.143 335C413.364 335 420.552 332.544 420.98 330.58C421.408 328.616 414.989 326.98 412.593 326.897C410.197 326.814 410.111 325.915 407.03 324.36C405.291 323.483 402.65 320.934 400.682 318.882C399.164 317.3 398.044 316.01 398.044 316.01C398.044 316.01 385.293 315.764 381.613 317.729C380.724 318.289 380.073 319.156 379.783 320.166C378.457 323.832 379.217 329.843 379.217 329.843Z" fill="#434175"/>
<path opacity="0.1" d="M380 320C382.559 318.933 397.538 318.519 400 318.458C398.547 316.558 397.476 315.012 397.476 315.012C397.476 315.012 385.273 314.717 381.751 317.075C380.853 317.823 380.235 318.855 380 320V320Z" fill="black"/>
<path d="M310 239.462L311.385 240.307C311.546 240.407 311.719 240.507 311.904 240.624C312.468 240.968 313.145 241.379 313.918 241.85C324.686 248.4 354.063 266.174 355.67 266.032C356.092 265.996 357.358 265.804 359.106 265.516C359.569 265.44 360.066 265.358 360.59 265.268C367.318 264.14 378.5 262.1 379.747 261.532C381.461 260.753 381.118 264.215 380.432 267.158C379.746 270.101 379.232 284.208 380.004 286.026C380.475 287.566 380.621 289.187 380.432 290.786L379.4 306.624L380.09 310C380.09 310 377.777 311.9 378.719 313.029C379.661 314.158 378.8 319 378.8 319C381.542 317.961 400.136 317.615 400.136 317.615C400.136 317.615 399.365 310.691 400.05 309.047C400.735 307.403 400.221 297.623 400.221 297.623C400.221 297.623 400.649 290.18 399.878 288.449C399.107 286.718 400.135 275.64 400.135 275.64C400.135 275.64 400.82 269.062 400.992 255.647C401.164 242.232 393.457 241.8 393.457 241.8C393.457 241.8 392.429 241.719 390.868 241.566C386.995 241.227 383.142 240.69 379.324 239.957C378.627 239.81 377.939 239.624 377.263 239.4C373.063 237.956 358.926 237.9 356.613 238.938C355.135 239.539 353.481 239.543 352 238.948L351.99 238.943L350.186 236L333 237.48L331.178 237.638L314.259 239.095L313.095 239.195L310 239.462Z" fill="#565387"/>
<path opacity="0.1" d="M378.641 253.579C383.792 256 388.708 247.422 391 242.583C387.849 242.291 382.6 241.734 379.089 241C376.781 244.731 373.7 251.26 378.641 253.579Z" fill="black"/>
<path d="M363 195.342C363.108 195.929 363.32 196.493 363.624 197.007C365.511 200.727 371.045 208.366 371.045 208.366C372.68 209.347 374.07 210.686 375.112 212.282C376.612 214.751 377.057 220.539 377.057 220.539C377.057 220.539 380.417 233.393 382.008 235.18C382.808 236.074 382.45 236.607 381.898 236.915C380.776 237.512 379.818 238.376 379.108 239.43C376.79 243.019 373.089 250.137 378.295 252.58C385.369 255.9 392 238.5 392 238.5C392 238.5 390.674 226.157 390.32 224.029C389.966 221.901 387.844 213.129 387.844 213.129C387.844 213.129 386.344 209.384 385.457 206.745C384.584 204.671 383.39 202.748 381.92 201.045C381.92 201.045 377.147 191.852 375.82 190.49C375.205 189.858 374.342 189.062 373.594 188.39C372.73 187.611 372.019 187 372.019 187C372.019 187 362.912 193.3 363 195.342Z" fill="#EE8E9E"/>
<path d="M306 328.957L321.775 335.9C321.775 335.9 342.23 336.329 345.784 335.386C349.338 334.443 348.558 330.498 343.877 329.727C339.196 328.956 338.07 326.897 336.51 325.954C335.457 325.32 331.72 321.208 329.4 318.6C328.284 317.346 327.5 316.438 327.5 316.438C327.5 316.438 324.462 308.464 316.054 310.265C314.523 310.591 313.109 311.328 311.963 312.395C307.434 316.543 307.04 324.756 307.04 324.756L306 328.957Z" fill="#434175"/>
<path opacity="0.1" d="M312 240.908C312.564 241.248 313.242 241.653 314.016 242.118C324.8 248.591 354.2 266.139 355.812 266C356.234 265.964 357.502 265.774 359.252 265.491C359.715 265.416 360.213 265.335 360.738 265.247C360.759 265.215 360.777 265.182 360.796 265.147C361.66 263.644 362.32 262.033 362.76 260.357C364.56 253.52 355.641 248.306 355.641 248.306L353.754 246.845C351.61 243.245 336.17 239.845 336.17 239.845L334.18 238.514L333.118 237.8L332.838 237.614L330.423 236L318.328 236.855L314.736 239.155L314.357 239.4L313.024 240.255L312 240.908Z" fill="black"/>
<path opacity="0.1" d="M312 312.255C315.425 322.946 329.733 319.455 329.733 319.455L330 318.1C328.848 316.918 328.033 316.063 328.033 316.063C327.037 313.88 325.317 312.109 323.165 311.05C321.013 309.99 318.56 309.707 316.223 310.249C314.667 310.545 313.213 311.236 312 312.255V312.255Z" fill="black"/>
<path d="M308.685 260.806C313.752 260.806 326.806 266.906 326.806 266.906C328.642 268.151 330.886 268.643 333.075 268.281C333.075 268.281 326.72 274.727 326.892 277.391C327.064 280.055 323.285 284.438 323.285 284.438L311.605 307.56C312.464 323.975 329.3 319.42 329.3 319.42L329.987 315.553C331.018 315.037 332.563 309.881 332.563 309.881C332.563 309.881 332.563 307.818 333.594 307.217C334.625 306.616 336.772 300.427 336.772 300.427C336.772 300.427 341.41 292.606 341.152 291.575C340.894 290.544 344.5 285.3 344.5 285.3C344.5 285.3 350.6 279.284 350.34 278.21C350.08 277.136 355.24 271.635 355.24 271.635C357.107 270.189 358.658 268.377 359.8 266.31C360.665 264.798 361.326 263.179 361.767 261.494C363.212 255.957 357.7 251.478 355.5 249.947C354.968 249.576 354.629 249.376 354.629 249.376L352.74 247.906C351.764 246.259 348.034 244.656 344.257 243.396C341.533 242.487 338.783 241.756 337.026 241.318C335.863 241.029 335.135 240.868 335.135 240.868L333.144 239.528L332.444 239.057L331.8 238.626L329.382 237L323.994 237.382L317.273 237.859L313.673 240.173L311.959 241.273L305.25 245.594C305.25 245.594 305.073 247.248 305.017 249.467C305.017 249.639 305.01 249.812 305.007 249.991C304.936 254.484 305.418 260.806 308.685 260.806Z" fill="#565387"/>
<path d="M335 165.313L336.781 171.73C336.781 171.73 339.919 182.766 340.258 183.536C340.597 184.306 348.823 192.091 349.158 192.263C349.493 192.435 353.981 195 353.981 195C353.981 195 354.336 180.884 353.996 176.777C353.967 175.875 354.041 174.972 354.217 174.087C355.004 170.173 356.02 166.309 357.261 162.515C358.211 159.469 359 157.185 359 157.185C359 157.185 339.155 156.33 339.834 158.3C340.059 159.37 340.033 160.478 339.759 161.536C339.351 163.585 338.5 165.643 337.968 165.484C337.454 165.367 336.928 165.308 336.4 165.308C335.663 165.285 335 165.313 335 165.313Z" fill="#EE8E9E"/>
<path opacity="0.1" d="M339 160.98C341.486 162.785 344.444 163.828 347.513 163.981C350.582 164.134 353.629 163.391 356.283 161.842C357.221 159.168 358 157.163 358 157.163C358 157.163 338.4 156.411 339.074 158.139C339.296 159.076 339.271 160.055 339 160.98V160.98Z" fill="black"/>
<path d="M363 148C363.001 149.591 362.748 151.172 362.25 152.683C362.125 153.073 361.98 153.456 361.816 153.832C360.649 156.599 358.677 158.952 356.158 160.586C353.638 162.22 350.686 163.06 347.684 162.998C344.681 162.935 341.767 161.973 339.317 160.235C336.868 158.498 334.996 156.065 333.945 153.252C333.349 151.66 333.032 149.978 333.008 148.278C333 148.188 333 148.092 333 148C333 144.022 334.58 140.206 337.393 137.393C340.206 134.58 344.022 133 348 133C351.978 133 355.794 134.58 358.607 137.393C361.42 140.206 363 144.022 363 148Z" fill="#EE8E9E"/>
<path opacity="0.1" d="M334 164.014L335.761 170.5C335.761 170.5 338.863 181.643 339.2 182.42C339.537 183.197 347.669 191.062 348 191.234C348.331 191.406 352.767 194 352.767 194C352.767 194 353.118 179.742 352.782 175.594C352.753 174.683 352.826 173.772 353 172.877L351.86 177.668L351.944 187.26L352.615 187.778L351.106 190.111V188.383C351.106 188.383 345.74 183.025 344.906 180.783C343.829 178.557 342.538 176.442 341.049 174.468C341.049 174.468 337.605 168.508 337.522 167.471C337.456 166.662 336.012 164.792 335.38 164.009C334.656 163.986 334 164.014 334 164.014Z" fill="black"/>
<path opacity="0.1" d="M364 195.336C364.101 195.92 364.301 196.483 364.59 197C366.895 196.822 369.074 195.877 370.78 194.316C372.485 192.755 373.619 190.668 374 188.388C373.184 187.611 372.513 187 372.513 187C372.513 187 363.917 193.295 364 195.336Z" fill="black"/>
<path opacity="0.1" d="M305 249C306.709 247.772 308.335 246.1 309.306 245.632C310.637 244.813 311.86 243.83 312.947 242.708C312.947 242.708 313.506 242.323 314.363 241.808C315.935 240.872 318.511 239.517 320.484 239.35C322.252 239.2 328.126 238.819 332.747 238.526C336.091 238.313 338.777 238.146 338.777 238.146C338.777 238.146 344.277 236.168 346.653 237.458C348.349 238.323 350.14 238.988 351.99 239.44C351.99 239.44 351.99 239.253 352 238.929L351.99 238.924L350.211 236L331.424 237.627L329.039 236L317.1 236.86L313.55 239.175L310.491 239.44L311.86 240.279L305.241 244.6C305.241 244.6 305.037 246.521 305 249Z" fill="black"/>
<path d="M302.1 250.94C303.005 250.668 303.853 250.232 304.6 249.654C306.32 248.425 307.954 246.754 308.931 246.288C310.272 245.468 311.506 244.484 312.603 243.358C312.603 243.358 317.129 240.258 320.203 239.997C321.042 239.926 322.794 239.804 324.903 239.666C327.058 239.521 329.581 239.359 331.874 239.216C333.196 239.132 334.441 239.052 335.493 238.987L338.651 238.787C338.651 238.787 344.201 236.805 346.592 238.098C348.303 238.963 350.108 239.628 351.972 240.08C351.972 240.08 352.057 234.048 352.741 231.549C353.425 229.05 354.363 224.483 354.363 224.483C354.363 224.483 355.132 218.193 355.9 215.349C356.668 212.505 359.657 196.649 361.194 195.616C362.731 194.583 363.585 196.392 363.585 196.392C363.585 196.392 373.829 196.223 374 184.849C374 184.849 369.218 180.024 368.877 178.817C368.536 177.61 364.009 173.13 364.009 173.13C364.009 173.13 361.448 168.3 358.544 168.218C357.172 168.139 355.796 168.181 354.432 168.346L351.969 178.472L352.054 188.037L352.737 188.554L351.2 190.88V189.157C351.2 189.157 345.735 183.815 344.881 181.574C343.782 179.35 342.467 177.239 340.953 175.274C340.953 175.274 337.453 169.335 337.367 168.301C337.281 167.267 334.891 164.5 334.891 164.5C334.409 164.443 333.921 164.443 333.439 164.5C333.222 164.515 333.004 164.484 332.8 164.409C331.423 163.965 329.956 163.881 328.538 164.165C325.585 164.784 321.094 165.916 319.862 167.271C317.983 169.339 315.251 171.321 312.177 179.938L328.743 185.97L327.325 188.689L314.141 213.974C314.141 213.974 313.704 214.693 313.111 215.632C312.342 216.85 311.311 218.439 310.64 219.315C309.44 220.866 309.786 225.778 309.786 225.778C309.786 225.778 309.53 228.105 308.676 228.966C307.822 229.827 307.993 233.016 307.993 233.016L305.773 241.374C305.773 241.374 303.724 243.274 303.724 244.131C303.724 244.988 302.1 247.407 302.1 247.407C302.1 247.407 299.624 251.543 302.1 250.94Z" fill="#434175"/>
<path opacity="0.1" d="M389 256C389 256 384.39 258.185 383.146 261.307C381.902 264.429 389 256 389 256Z" fill="black"/>
<path opacity="0.1" d="M387 251C386.852 251.245 380.627 258.152 381.018 259.82C381.409 261.488 387 251 387 251Z" fill="black"/>
<path opacity="0.1" d="M347 257C347 257 339.657 260.995 339.033 262.737C338.409 264.479 347 257 347 257Z" fill="black"/>
<path opacity="0.1" d="M347 260C347 260 340.024 263.912 339.071 264.89C338.118 265.868 347 260 347 260Z" fill="black"/>
<path opacity="0.1" d="M345 267.56C345 267.56 341.349 270.353 339.336 268.16C337.323 265.967 345 267.56 345 267.56Z" fill="black"/>
<path opacity="0.1" d="M356 205C355.828 205.256 345.145 224.48 342.324 225.932C339.503 227.384 356 205 356 205Z" fill="black"/>
<path opacity="0.1" d="M355 212C355 212.427 344.813 234.741 343.143 235C341.473 235.259 355 212 355 212Z" fill="black"/>
<path opacity="0.1" d="M316 227C316 227 311.165 237.386 309.272 237.978C307.379 238.57 316 227 316 227Z" fill="black"/>
<path opacity="0.1" d="M315 222C315 222 313.249 226 312.185 226C311.121 226 315 222 315 222Z" fill="black"/>
<path opacity="0.1" d="M363 149.4C363.001 150.931 362.747 152.452 362.25 153.9C362.124 154.274 361.979 154.641 361.816 155C361.051 154.889 360.328 154.584 359.716 154.113C359.076 153.7 358.537 153.149 358.139 152.5C357.844 151.815 357.588 151.114 357.372 150.4C357.011 149.582 356.441 148.873 355.718 148.346C354.996 147.819 354.146 147.493 353.257 147.4C353.757 148.216 352.962 149.336 351.987 149.481C351.497 149.51 351.007 149.425 350.556 149.233C350.105 149.04 349.704 148.744 349.387 148.37C348.715 147.67 348.229 146.83 347.562 146.135C347.245 145.761 346.844 145.465 346.393 145.272C345.942 145.08 345.452 144.995 344.962 145.024C344.131 145.266 343.361 145.685 342.707 146.252C342.373 146.529 341.966 146.703 341.535 146.754C341.104 146.804 340.668 146.728 340.279 146.535C339.889 146.256 339.698 145.782 339.325 145.478C338.367 144.708 336.875 145.503 336.168 146.498C335.086 148.04 334.422 148.972 333.009 149.668C333 149.58 333 149.489 333 149.4C333 141.448 339.716 135 348 135C356.284 135 363 141.448 363 149.4Z" fill="black"/>
<path d="M336.434 145.449C337.124 144.449 338.583 143.649 339.524 144.427C339.889 144.727 340.075 145.206 340.456 145.488C340.836 145.682 341.265 145.758 341.688 145.707C342.111 145.657 342.51 145.481 342.833 145.203C343.467 144.636 344.218 144.215 345.033 143.97C345.515 143.942 345.996 144.028 346.438 144.222C346.88 144.416 347.269 144.712 347.574 145.086C348.23 145.786 348.705 146.632 349.361 147.331C349.666 147.705 350.056 148.001 350.498 148.195C350.94 148.389 351.421 148.475 351.903 148.446C352.858 148.302 353.636 147.176 353.145 146.357C354.022 146.456 354.858 146.786 355.565 147.315C356.273 147.843 356.827 148.55 357.171 149.363C357.382 150.08 357.633 150.785 357.923 151.474C358.309 152.123 358.836 152.677 359.465 153.095C360.206 153.728 361.167 154.042 362.138 153.968C363.089 153.805 363.894 152.731 363.452 151.885C363.752 152.34 364.409 151.706 364.507 151.17C364.721 149.994 364.652 148.785 364.307 147.641C363.838 146.087 362.854 144.541 363.233 142.968C363.533 141.719 364.616 140.822 365.274 139.714C365.821 138.71 366.06 137.566 365.96 136.426C365.861 135.287 365.427 134.202 364.713 133.308C363.969 132.425 363.03 131.726 361.97 131.269C360.91 130.811 359.758 130.606 358.605 130.67C357.968 130.742 357.325 130.753 356.685 130.705C355.64 130.456 354.674 129.946 353.88 129.222L346.772 123.756C345.979 123.068 345.069 122.528 344.085 122.161C343.59 121.983 343.056 121.938 342.538 122.032C342.02 122.125 341.535 122.353 341.133 122.693C339.8 124 340.648 126.261 340.114 128.039C339.814 128.793 339.341 129.465 338.734 130.004C338.127 130.542 337.403 130.931 336.619 131.139C335.077 131.659 333.427 131.773 331.842 132.15C331.371 132.226 330.929 132.429 330.564 132.736C330.154 133.233 329.955 133.871 330.009 134.513C329.998 136.088 330.376 137.64 331.109 139.034C331.935 140.6 333.24 142.2 332.778 143.9C332.436 144.773 331.9 145.557 331.211 146.193C329.868 147.715 329.411 149.964 331.942 149.178C334.377 148.42 335.06 147.439 336.434 145.449Z" fill="#434175"/>
<g opacity="0.1">
<path opacity="0.1" d="M365.222 149.534C365.122 150.057 364.46 150.676 364.152 150.234C364.6 151.06 363.784 152.108 362.819 152.267C361.839 152.341 360.869 152.035 360.108 151.414C359.474 151.011 358.94 150.47 358.544 149.832C358.251 149.16 357.996 148.472 357.782 147.771C357.419 146.967 356.85 146.272 356.134 145.757C355.417 145.242 354.578 144.925 353.7 144.837C354.2 145.637 353.408 146.737 352.44 146.877C351.955 146.906 351.47 146.822 351.023 146.632C350.576 146.442 350.18 146.151 349.864 145.782C349.199 145.1 348.717 144.272 348.052 143.59C347.735 143.223 347.338 142.933 346.891 142.745C346.444 142.557 345.96 142.474 345.476 142.504C344.653 142.739 343.891 143.148 343.241 143.704C342.908 143.976 342.504 144.148 342.077 144.197C341.65 144.247 341.217 144.172 340.831 143.983C340.444 143.711 340.257 143.245 339.885 142.951C338.932 142.192 337.457 142.972 336.757 143.948C335.357 145.891 334.667 146.849 332.199 147.587C331.389 147.83 330.882 147.775 330.609 147.541C330.067 148.721 330.314 149.761 332.199 149.196C334.667 148.458 335.357 147.5 336.757 145.558C337.457 144.582 338.936 143.801 339.89 144.558C340.26 144.853 340.449 145.318 340.835 145.594C341.221 145.783 341.654 145.858 342.081 145.808C342.508 145.759 342.912 145.587 343.245 145.315C343.895 144.759 344.657 144.35 345.48 144.115C345.964 144.085 346.449 144.168 346.896 144.357C347.343 144.545 347.74 144.835 348.057 145.203C348.722 145.885 349.204 146.713 349.869 147.395C350.185 147.762 350.582 148.051 351.028 148.24C351.474 148.429 351.958 148.511 352.442 148.482C353.41 148.341 354.199 147.242 353.702 146.442C354.58 146.531 355.42 146.849 356.136 147.365C356.853 147.881 357.421 148.577 357.783 149.382C357.997 150.083 358.252 150.771 358.545 151.443C358.941 152.081 359.475 152.622 360.109 153.025C360.87 153.646 361.84 153.952 362.82 153.878C363.784 153.719 364.601 152.67 364.153 151.845C364.461 152.289 365.123 151.671 365.223 151.145C365.357 150.441 365.383 149.722 365.301 149.01C365.28 149.182 365.257 149.36 365.222 149.534Z" fill="black"/>
<path opacity="0.1" d="M333.024 142.496C333.031 142.475 333.04 142.455 333.046 142.434C333.514 140.776 332.191 139.211 331.357 137.689C330.774 136.623 330.41 135.45 330.288 134.241C330.255 134.454 330.239 134.669 330.238 134.884C330.229 136.427 330.615 137.946 331.357 139.298C332.029 140.299 332.588 141.372 333.024 142.496Z" fill="black"/>
<path opacity="0.1" d="M366.004 138.35C365.337 139.432 364.239 140.307 363.935 141.527C363.817 142.042 363.822 142.578 363.95 143.091C364.27 141.891 365.35 141.027 366.004 139.959C366.623 138.924 366.858 137.704 366.667 136.513C366.572 137.164 366.346 137.789 366.004 138.35Z" fill="black"/>
</g>
<path opacity="0.1" d="M313 214.961C313.114 215.437 313.202 215.918 313.263 216.404C313.263 216.404 320.063 232.356 320.92 233.304C321.185 233.595 322.183 235.03 323.437 236.877C323.891 237.544 324.378 238.267 324.877 239.008C327.477 242.878 330.383 247.272 330.383 247.272L336.749 252.872C336.749 252.872 350.6 253.989 355 249.485C354.467 249.113 354.128 248.912 354.128 248.912L352.235 247.438C351.258 245.786 347.521 244.177 343.735 242.913C340.249 242.939 337.398 243.222 337.398 243.222L336.491 240.828L335.545 238.328L330.732 225.628C330.732 225.628 327.63 209.594 326.6 208.818C325.57 208.042 325.826 205.628 325.826 205.628C325.826 205.628 327.719 198.816 327.026 197.868C326.333 196.92 328.144 189.935 328.144 189.935C327.965 189.253 327.688 188.602 327.321 188L314.038 213.3C314.038 213.3 313.6 214.021 313 214.961Z" fill="black"/>
<path d="M328.452 190.281C328.452 190.281 326.682 197.227 327.352 198.17C328.022 199.113 326.172 205.888 326.172 205.888C326.172 205.888 325.919 208.288 326.931 209.061C327.943 209.834 330.984 225.783 330.984 225.783L337.515 243.276C337.515 243.276 357.951 241.218 355.844 247.735C353.737 254.252 336.882 252.88 336.882 252.88L330.644 247.306C330.644 247.306 322.215 234.358 321.372 233.414C320.529 232.47 313.872 216.607 313.872 216.607C313.872 216.607 313.535 213.434 312.102 211.807C310.669 210.18 311.762 207.42 311.762 207.42C311.762 207.42 309.992 186.679 311.847 184.193C313.702 181.707 326.514 182.821 328.452 190.281Z" fill="#EE8E9E"/>
<path opacity="0.1" d="M317.946 176.171L312.676 179.4C312.676 179.4 311.171 184.585 310 185.265C310 185.265 320.539 179.315 328.484 193C328.412 192.526 328.451 192.042 328.596 191.585C328.74 191.128 328.988 190.711 329.32 190.365C330.407 189.515 330.156 185.865 330.156 185.865C330.446 185.287 330.697 184.691 330.909 184.08C331.663 182.205 327.732 171.5 317.946 176.171Z" fill="black"/>
<path d="M317.946 176.171L312.676 179.4C312.676 179.4 311.171 184.585 310 185.265C310 185.265 320.539 179.315 328.484 193C328.412 192.526 328.451 192.042 328.596 191.585C328.74 191.128 328.988 190.711 329.32 190.365C330.407 189.515 330.156 185.865 330.156 185.865C330.446 185.287 330.697 184.691 330.909 184.08C331.663 182.205 327.732 171.5 317.946 176.171Z" fill="#434175"/>
<path d="M270 326C278.837 326 286 318.389 286 309C286 299.611 278.837 292 270 292C261.163 292 254 299.611 254 309C254 318.389 261.163 326 270 326Z" fill="#FBD56F"/>
<path opacity="0.1" d="M270 326C278.837 326 286 318.389 286 309C286 299.611 278.837 292 270 292C261.163 292 254 299.611 254 309C254 318.389 261.163 326 270 326Z" fill="black"/>
<path d="M272 326C280.837 326 288 318.613 288 309.5C288 300.387 280.837 293 272 293C263.163 293 256 300.387 256 309.5C256 318.613 263.163 326 272 326Z" fill="#FBD56F"/>
<path d="M38 319C49.0457 319 58 317.657 58 316C58 314.343 49.0457 313 38 313C26.9543 313 18 314.343 18 316C18 317.657 26.9543 319 38 319Z" fill="#8090FD"/>
<path d="M47.076 309.97C47.9664 309.247 48.6158 308.271 48.938 307.17C49.0815 306.617 49.0306 306.032 48.7939 305.513C48.5572 304.993 48.1491 304.571 47.638 304.317C46.438 303.861 45.166 304.687 44.198 305.517C43.23 306.347 42.119 307.3 40.852 307.128C41.5035 306.54 41.9911 305.793 42.2672 304.961C42.5433 304.128 42.5984 303.237 42.427 302.377C42.3713 302.022 42.2199 301.688 41.989 301.412C41.326 300.705 40.123 301.012 39.329 301.566C36.8 303.337 36.1 306.757 36.084 309.836C35.9443 308.705 35.9289 307.563 36.038 306.429C36.0868 305.86 35.9953 305.288 35.7714 304.763C35.5475 304.237 35.1982 303.775 34.754 303.416C34.1543 303.094 33.4803 302.936 32.8 302.957C32.2371 302.876 31.6635 302.914 31.1164 303.069C30.5692 303.224 30.0608 303.493 29.624 303.857C29.2044 304.424 28.9881 305.116 29.0101 305.821C29.032 306.527 29.2909 307.204 29.745 307.744C30.6819 308.801 31.7938 309.689 33.032 310.368C33.9728 310.926 34.7757 311.689 35.381 312.6C35.4521 312.727 35.5104 312.861 35.555 313H42.674C44.2713 312.193 45.752 311.174 47.076 309.97Z" fill="#8090FD"/>
<path d="M217.72 293.108C218.611 294.368 219.338 295.736 219.882 297.18C220.026 297.554 220.168 297.948 220.302 298.361C222.451 304.986 219.046 312.931 218.073 312.074C217.1 311.217 214.066 309.627 213.48 311.861C212.885 313.541 211.948 315.08 210.727 316.379C206.78 320.479 203.207 316.049 200.861 311.479C200.094 309.968 199.412 308.415 198.82 306.827C198.3 305.422 198 304.452 198 304.452L214.441 290C215.761 290.767 216.883 291.831 217.72 293.108Z" fill="#8090FD"/>
<path d="M192.72 302.108C193.611 303.368 194.338 304.736 194.882 306.18C195.026 306.554 195.168 306.948 195.302 307.361C197.451 313.986 194.046 321.931 193.073 321.074C192.1 320.217 189.066 318.627 188.48 320.861C187.885 322.541 186.948 324.08 185.727 325.379C181.78 329.479 178.207 325.049 175.861 320.479C175.094 318.968 174.412 317.415 173.82 315.827C173.3 314.422 173 313.452 173 313.452L189.441 299C190.761 299.767 191.883 300.831 192.72 302.108Z" fill="#8090FD"/>
<path d="M140.979 314.4C140.886 315.901 140.597 317.384 140.12 318.811C139.999 319.182 139.864 319.565 139.711 319.958C137.255 326.258 129.684 330.012 129.464 328.758C129.244 327.504 127.886 324.382 126.043 325.673C124.528 326.549 122.846 327.098 121.106 327.285C115.506 327.822 115.494 322.248 116.522 317.348C116.867 315.736 117.305 314.145 117.834 312.583C118.3 311.205 118.675 310.292 118.675 310.292L140.374 310C140.915 311.4 141.122 312.906 140.979 314.4Z" fill="#8090FD"/>
<path d="M113.979 308.4C113.886 309.901 113.597 311.384 113.12 312.811C112.999 313.182 112.864 313.565 112.711 313.958C110.255 320.258 102.684 324.012 102.464 322.758C102.244 321.504 100.886 318.382 99.043 319.673C97.5278 320.549 95.8461 321.098 94.106 321.285C88.506 321.822 88.494 316.248 89.522 311.348C89.8668 309.736 90.3049 308.145 90.834 306.583C91.3 305.205 91.675 304.292 91.675 304.292L113.374 304C113.915 305.4 114.122 306.906 113.979 308.4Z" fill="#8090FD"/>
<path opacity="0.2" d="M217.72 293.108C218.611 294.368 219.338 295.736 219.882 297.18C220.026 297.554 220.168 297.948 220.302 298.361C222.451 304.986 219.046 312.931 218.073 312.074C217.1 311.217 214.066 309.627 213.48 311.861C212.885 313.541 211.948 315.08 210.727 316.379C206.78 320.479 203.207 316.049 200.861 311.479C200.094 309.968 199.412 308.415 198.82 306.827C198.3 305.422 198 304.452 198 304.452L214.441 290C215.761 290.767 216.883 291.831 217.72 293.108Z" fill="black"/>
<path opacity="0.2" d="M192.72 302.108C193.611 303.368 194.338 304.736 194.882 306.18C195.026 306.554 195.168 306.948 195.302 307.361C197.451 313.986 194.046 321.931 193.073 321.074C192.1 320.217 189.066 318.627 188.48 320.861C187.885 322.541 186.948 324.08 185.727 325.379C181.78 329.479 178.207 325.049 175.861 320.479C175.094 318.968 174.412 317.415 173.82 315.827C173.3 314.422 173 313.452 173 313.452L189.441 299C190.761 299.767 191.883 300.831 192.72 302.108Z" fill="black"/>
<path opacity="0.2" d="M140.979 314.4C140.886 315.901 140.597 317.384 140.12 318.811C139.999 319.182 139.864 319.565 139.711 319.958C137.255 326.258 129.684 330.012 129.464 328.758C129.244 327.504 127.886 324.382 126.043 325.673C124.528 326.549 122.846 327.098 121.106 327.285C115.506 327.822 115.494 322.248 116.522 317.348C116.867 315.736 117.305 314.145 117.834 312.583C118.3 311.205 118.675 310.292 118.675 310.292L140.374 310C140.915 311.4 141.122 312.906 140.979 314.4Z" fill="black"/>
<path opacity="0.2" d="M113.979 308.4C113.886 309.901 113.597 311.384 113.12 312.811C112.999 313.182 112.864 313.565 112.711 313.958C110.255 320.258 102.684 324.012 102.464 322.758C102.244 321.504 100.886 318.382 99.043 319.673C97.5278 320.549 95.8461 321.098 94.106 321.285C88.506 321.822 88.494 316.248 89.522 311.348C89.8668 309.736 90.3049 308.145 90.834 306.583C91.3 305.205 91.675 304.292 91.675 304.292L113.374 304C113.915 305.4 114.122 306.906 113.979 308.4Z" fill="black"/>
<path d="M262 213.5C262 271.214 242.5 318 152.515 318C92.048 318 45.268 302.957 43.03 213.5C41.587 155.8 92.048 109 152.515 109C212.982 109 262 155.786 262 213.5Z" fill="#8090FD"/>
<path opacity="0.2" d="M132.172 111.077C132.485 111.032 133.1 110.955 134 110.894L132 111.105C132.029 111.099 132.065 111.092 132.108 111.085L132.172 111.077Z" fill="black"/>
<path opacity="0.2" d="M213 154.13L205.035 157C200.975 151.551 196.605 146.339 191.949 141.389C186.868 135.965 181.323 130.994 175.378 126.533C154.984 111.406 139.209 111.02 134 111.409L145.973 110C157.29 111.949 168.173 115.886 178.118 121.629C185.077 125.644 191.558 130.435 197.436 135.911C203.376 141.299 208.606 147.421 213 154.13Z" fill="black"/>
<path opacity="0.2" d="M140.345 160C140.345 160 129.5 124.9 138.7 115.326C138.7 115.326 153.156 110.539 164 137.663L140.345 160Z" fill="black"/>
<path d="M194 125.919C194 125.919 222.113 102.188 234.55 106.531C234.55 106.531 244.636 117.471 223.879 138L194 125.919Z" fill="#8090FD"/>
<path opacity="0.2" d="M194 125.919C194 125.919 222.113 102.188 234.55 106.531C234.55 106.531 244.636 117.471 223.879 138L194 125.919Z" fill="black"/>
<path d="M283 240.369C283 271.447 260.7 296 239.709 296C218.718 296 207 271.447 207 240.369C207 209.291 224.048 185.311 245 184.1C278.19 182.173 283 209.291 283 240.369Z" fill="#8090FD"/>
<path opacity="0.2" d="M283 240.369C283 271.447 260.7 296 239.709 296C218.718 296 207 271.447 207 240.369C207 209.291 224.048 185.311 245 184.1C278.19 182.173 283 209.291 283 240.369Z" fill="black"/>
<path d="M238 253C241.866 253 245 248.971 245 244C245 239.029 241.866 235 238 235C234.134 235 231 239.029 231 244C231 248.971 234.134 253 238 253Z" fill="#8090FD"/>
<path d="M263 246C266.866 246 270 241.971 270 237C270 232.029 266.866 228 263 228C259.134 228 256 232.029 256 237C256 241.971 259.134 246 263 246Z" fill="#8090FD"/>
<path d="M199 129.6C199.006 131.623 198.549 133.621 197.664 135.44C196.518 137.829 194.627 139.78 192.275 141C187.3 135.514 181.854 130.473 176 125.935C176.515 124.097 177.434 122.398 178.691 120.961C179.751 119.728 181.063 118.736 182.539 118.053C184.015 117.369 185.62 117.01 187.246 117C193.737 117 199 122.643 199 129.6Z" fill="#FAD46F"/>
</g>
<defs>
<linearGradient id="paint0_linear" x1="361.003" y1="336.999" x2="361.003" y2="119.983" gradientUnits="userSpaceOnUse">
<stop stop-color="#808080" stop-opacity="0.251"/>
<stop offset="0.535" stop-color="#808080" stop-opacity="0.122"/>
<stop offset="1" stop-color="#808080" stop-opacity="0.102"/>
</linearGradient>
<clipPath id="clip0">
<rect width="480" height="345" fill="white"/>
</clipPath>
</defs>
</svg>
