<svg width="199" height="198" viewBox="0 0 199 198" fill="none" xmlns="http://www.w3.org/2000/svg">
<path fill-rule="evenodd" clip-rule="evenodd" d="M192.073 96.0466C194.727 97.5926 194.72 101.429 192.061 102.966L162.965 119.78C161.73 120.494 160.208 120.496 158.971 119.785L129.658 102.947C127.001 101.422 126.976 97.599 129.611 96.0376L158.545 78.8941C159.793 78.1546 161.344 78.1488 162.597 78.8789L192.073 96.0466Z" fill="white"/>
<path fill-rule="evenodd" clip-rule="evenodd" d="M102.944 191.662C101.4 194.329 97.5479 194.322 96.0134 191.65L79.2588 162.477C78.5522 161.246 78.5502 159.734 79.2536 158.501L96.0324 129.109C97.5557 126.44 101.394 126.415 102.953 129.062L120.036 158.074C120.769 159.317 120.774 160.859 120.051 162.108L102.944 191.662Z" fill="white"/>
<path fill-rule="evenodd" clip-rule="evenodd" d="M35.5622 168.004C32.5892 168.795 29.8732 166.074 30.6699 163.103L39.3928 130.571C39.7613 129.197 40.8318 128.122 42.2043 127.748L74.7829 118.867C77.7429 118.06 80.4718 120.748 79.7095 123.72L71.3333 156.37C70.9738 157.772 69.8856 158.87 68.4875 159.242L35.5622 168.004Z" fill="white"/>
<path fill-rule="evenodd" clip-rule="evenodd" d="M5.95782 102.592C3.30349 101.046 3.31004 97.2089 5.96965 95.672L35.0654 78.8584C36.3005 78.1447 37.8221 78.1427 39.0591 78.8532L68.373 95.691C71.0291 97.2166 71.0549 101.039 68.4196 102.601L39.4852 119.744C38.2372 120.484 36.6866 120.49 35.433 119.759L5.95782 102.592Z" fill="white"/>
<path fill-rule="evenodd" clip-rule="evenodd" d="M30.4884 35.8229C29.7017 32.8487 32.4271 30.1368 35.3974 30.9382L67.8046 39.6817C69.1781 40.0522 70.2515 41.1244 70.6235 42.4976L79.4837 75.2013C80.2859 78.1623 77.5936 80.8871 74.6231 80.1203L42.0973 71.7243C40.6964 71.3627 39.5999 70.2728 39.23 68.8741L30.4884 35.8229Z" fill="white"/>
<path fill-rule="evenodd" clip-rule="evenodd" d="M102.676 68.5443C101.133 71.211 97.2805 71.2044 95.7459 68.5325L78.9914 39.359C78.2848 38.1286 78.2828 36.616 78.9862 35.3839L95.765 5.99131C97.2883 3.32285 101.127 3.297 102.686 5.94472L119.769 34.9564C120.501 36.1998 120.507 37.7412 119.784 38.99L102.676 68.5443Z" fill="white"/>
<path fill-rule="evenodd" clip-rule="evenodd" d="M163.309 31.1781C166.296 30.4391 168.964 33.207 168.115 36.164L158.828 68.5383C158.435 69.9058 157.346 70.9621 155.967 71.3122L123.239 79.6217C120.265 80.3766 117.584 77.6412 118.398 74.6834L127.341 42.1844C127.725 40.7894 128.832 39.7104 130.236 39.3628L163.309 31.1781Z" fill="white"/>
<path fill-rule="evenodd" clip-rule="evenodd" d="M167.818 162.654C168.656 165.614 165.979 168.373 162.995 167.623L130.44 159.448C129.06 159.102 127.968 158.049 127.572 156.682L118.144 124.138C117.291 121.192 119.935 118.421 122.918 119.135L155.586 126.96C156.993 127.298 158.108 128.368 158.502 129.76L167.818 162.654Z" fill="white"/>
</svg>
