<svg width="617" height="433" viewBox="0 0 617 433" fill="none" xmlns="http://www.w3.org/2000/svg">
<g clip-path="url(#clip0)">
<path d="M231.951 432.589C359.853 432.589 463.538 424.489 463.538 414.497C463.538 404.504 359.853 396.404 231.951 396.404C104.048 396.404 0.363037 404.504 0.363037 414.497C0.363037 424.489 104.048 432.589 231.951 432.589Z" fill="#3F3D56"/>
<path d="M87.29 401.704C87.1622 401.496 84.1498 396.466 83.1055 386.021C82.1475 376.439 82.7635 360.287 91.1401 337.756C107.009 295.073 87.4829 260.635 87.2834 260.292L88.2468 259.733C88.2973 259.82 93.3359 268.6 96.3124 282.582C100.245 301.119 98.8132 320.392 92.1839 338.144C76.3419 380.754 88.1196 400.925 88.2403 401.124L87.29 401.704Z" fill="#3F3D56"/>
<path d="M81.0847 257.785C85.0816 257.785 88.3218 254.545 88.3218 250.548C88.3218 246.551 85.0816 243.311 81.0847 243.311C77.0877 243.311 73.8475 246.551 73.8475 250.548C73.8475 254.545 77.0877 257.785 81.0847 257.785Z" fill="#47E6B1"/>
<path d="M103.909 284.507C107.906 284.507 111.146 281.267 111.146 277.27C111.146 273.273 107.906 270.033 103.909 270.033C99.9124 270.033 96.6722 273.273 96.6722 277.27C96.6722 281.267 99.9124 284.507 103.909 284.507Z" fill="#3F3D56"/>
<path d="M88.3218 302.321C92.3188 302.321 95.5589 299.081 95.5589 295.084C95.5589 291.087 92.3188 287.847 88.3218 287.847C84.3249 287.847 81.0847 291.087 81.0847 295.084C81.0847 299.081 84.3249 302.321 88.3218 302.321Z" fill="#47E6B1"/>
<path d="M107.25 317.352C111.247 317.352 114.487 314.112 114.487 310.115C114.487 306.118 111.247 302.878 107.25 302.878C103.253 302.878 100.013 306.118 100.013 310.115C100.013 314.112 103.253 317.352 107.25 317.352Z" fill="#47E6B1"/>
<path d="M82.7548 340.734C86.7517 340.734 89.9919 337.494 89.9919 333.497C89.9919 329.5 86.7517 326.26 82.7548 326.26C78.7579 326.26 75.5177 329.5 75.5177 333.497C75.5177 337.494 78.7579 340.734 82.7548 340.734Z" fill="#3F3D56"/>
<path d="M91.662 401.971C91.662 401.971 84.4248 384.156 106.136 370.796L91.662 401.971Z" fill="#3F3D56"/>
<path d="M82.7614 401.648C82.7614 401.648 79.4677 382.703 53.9752 382.866L82.7614 401.648Z" fill="#3F3D56"/>
<path d="M206.342 86.8781C206.342 86.8781 206.899 101.352 203.559 104.693C200.219 108.033 220.26 119.723 220.26 119.723L231.951 101.352C231.951 101.352 227.497 93.5585 228.61 86.8781H206.342Z" fill="#A0616A"/>
<path d="M170.435 381.095V395.012L187.693 396.126L186.58 381.095H170.435Z" fill="#A0616A"/>
<path d="M265.074 381.095V395.012L247.817 396.126L248.93 381.095H265.074Z" fill="#A0616A"/>
<path d="M179.342 226.888C179.342 226.888 170.435 259.177 176.002 284.785C176.002 284.785 176.002 295.919 178.229 298.146C180.456 300.373 181.012 300.373 179.342 301.486C177.672 302.6 174.332 305.383 176.002 307.053C177.672 308.724 178.229 310.95 177.116 311.507C176.002 312.064 174.889 313.177 176.002 315.404C177.116 317.631 170.435 377.198 170.435 377.198C170.435 377.198 163.755 384.435 170.435 384.992C177.116 385.548 188.25 388.332 189.363 383.878C190.476 379.425 199.384 316.517 199.384 316.517C199.384 316.517 200.497 314.847 202.724 312.064C204.951 309.28 203.837 308.167 203.837 307.61C203.837 307.053 215.528 254.167 215.528 254.167C215.528 254.167 232.786 314.291 234.456 315.404C236.126 316.517 236.683 316.517 236.683 318.187C236.683 319.858 235.569 320.971 236.683 322.641C237.291 323.537 237.849 324.466 238.353 325.425C238.353 325.425 241.136 387.775 246.703 387.775C252.27 387.775 268.971 386.662 267.301 381.651C265.631 376.641 263.404 377.754 263.404 377.754C263.404 377.754 267.301 326.538 257.837 311.507V299.26C257.837 298.146 258.394 297.59 257.837 296.476C257.281 295.363 259.507 229.115 248.93 225.218C238.353 221.321 179.342 226.888 179.342 226.888Z" fill="#D0CDE1"/>
<path d="M181.013 391.115C181.013 391.115 178.229 386.661 174.332 386.661C170.435 386.661 167.652 391.115 167.652 391.115L157.631 405.033C157.631 405.033 143.157 413.94 148.724 418.95C154.291 423.961 169.322 421.177 169.322 421.177C169.322 421.177 181.569 412.27 183.239 411.713C184.909 411.156 189.363 408.373 189.92 407.816C190.476 407.259 188.806 387.218 187.136 388.61C185.466 390.002 184.353 394.455 181.013 391.115Z" fill="#2F2E41"/>
<path d="M254.497 391.115C254.497 391.115 257.281 386.661 261.177 386.661C265.074 386.661 267.858 391.115 267.858 391.115L277.878 405.033C277.878 405.033 292.353 413.94 286.786 418.95C281.219 423.961 266.188 421.177 266.188 421.177C266.188 421.177 253.94 412.27 252.27 411.713C250.6 411.156 246.146 408.373 245.59 407.816C245.033 407.259 246.703 387.218 248.373 388.61C250.043 390.002 251.157 394.455 254.497 391.115Z" fill="#2F2E41"/>
<path d="M216.085 94.9503C227.153 94.9503 236.126 85.9775 236.126 74.909C236.126 63.8406 227.153 54.8678 216.085 54.8678C205.016 54.8678 196.043 63.8406 196.043 74.909C196.043 85.9775 205.016 94.9503 216.085 94.9503Z" fill="#A0616A"/>
<path d="M210.796 106.363C210.796 106.363 207.051 106.569 205.305 100.899L175.724 122.507L187.971 155.352C187.971 155.352 189.641 173.167 187.971 178.177C186.301 183.187 185.188 187.084 185.188 189.311C185.188 191.538 173.497 228.837 177.951 230.507C182.404 232.177 250.322 238.857 251.992 227.723C253.662 216.589 246.425 143.105 246.425 143.105L258.116 114.713L229.693 96.1212C229.693 96.1212 226.94 107.476 210.796 106.363Z" fill="#3F3D56"/>
<path d="M173.775 157.857L171.549 175.115C171.549 175.115 162.641 193.486 164.868 217.981L164.312 234.125C164.312 234.125 158.745 261.961 169.879 263.074C181.013 264.187 173.775 232.455 173.775 232.455L179.899 217.424L186.168 183.988L189.363 160.641L173.775 157.857Z" fill="#A0616A"/>
<path d="M183.796 121.672L175.724 122.507C175.724 122.507 170.435 161.754 172.105 161.754C173.775 161.754 192.703 166.208 193.26 165.095C193.817 163.981 183.796 121.672 183.796 121.672Z" fill="#3F3D56"/>
<path d="M200.621 54.3654L197.009 53.0517C197.009 53.0517 204.563 45.4978 215.073 46.1546L212.117 43.1987C212.117 43.1987 219.342 40.5713 225.911 47.4683C229.364 51.094 233.359 55.3557 235.85 60.1565H239.719L238.104 63.3861L243.755 66.6156L237.955 66.0355C238.504 68.8237 238.315 71.7072 237.406 74.3997L236.092 78.0125C236.092 78.0125 230.837 67.5026 230.837 66.1889V69.4732C230.837 69.4732 227.224 66.5173 227.224 64.5468L225.254 66.8458L224.269 63.233L212.117 66.8458L214.087 63.8899L206.533 64.8752L209.489 61.2625C209.489 61.2625 200.95 65.5321 200.622 69.1448C200.293 72.7576 196.024 77.3556 196.024 77.3556L194.053 74.0713C194.053 74.0713 191.097 59.2919 200.621 54.3654Z" fill="#2F2E41"/>
<path d="M253.245 339.899C273.767 339.899 290.404 316.221 290.404 287.012C290.404 257.804 273.767 234.125 253.245 234.125C232.722 234.125 216.085 257.804 216.085 287.012C216.085 316.221 232.722 339.899 253.245 339.899Z" fill="#3F3D56"/>
<path opacity="0.1" d="M253.245 339.899C273.767 339.899 290.404 316.221 290.404 287.012C290.404 257.804 273.767 234.125 253.245 234.125C232.722 234.125 216.085 257.804 216.085 287.012C216.085 316.221 232.722 339.899 253.245 339.899Z" fill="black"/>
<path d="M258.255 339.899C278.778 339.899 295.415 316.221 295.415 287.012C295.415 257.804 278.778 234.125 258.255 234.125C237.732 234.125 221.095 257.804 221.095 287.012C221.095 316.221 237.732 339.899 258.255 339.899Z" fill="#3F3D56"/>
<path opacity="0.1" d="M258.255 332.372C275.857 332.372 290.126 312.064 290.126 287.012C290.126 261.961 275.857 241.652 258.255 241.652C240.653 241.652 226.384 261.961 226.384 287.012C226.384 312.064 240.653 332.372 258.255 332.372Z" fill="black"/>
<path d="M257.979 308.861V303.537C255.287 303.484 252.503 302.535 250.879 301.217L251.992 297.685C253.922 299.132 256.263 299.925 258.675 299.952C261.97 299.952 264.197 297.79 264.197 294.785C264.197 291.886 262.387 290.094 258.953 288.512C254.22 286.403 251.296 283.978 251.296 279.392C251.296 275.016 254.034 271.694 258.304 270.904V265.579H261.181V270.693C263.326 270.722 265.419 271.362 267.214 272.538L266.053 276.018C264.332 274.839 262.292 274.214 260.206 274.225C256.633 274.225 255.287 276.65 255.287 278.759C255.287 281.5 257.004 282.871 261.042 284.769C265.821 286.983 268.235 289.724 268.235 294.416C268.235 298.581 265.682 302.483 260.902 303.378V308.861H257.979Z" fill="#47E6B1"/>
<path d="M266.188 151.734V174.559C266.188 174.559 266.744 202.394 257.28 219.651L252.27 230.785C252.27 230.785 242.25 263.074 236.126 253.053C230.002 243.033 242.806 226.332 242.806 226.332L250.052 183.956L245.59 155.631L266.188 151.734Z" fill="#A0616A"/>
<path d="M247.26 113.321L258.116 114.713C258.116 114.713 271.198 154.517 267.858 156.187C264.518 157.858 242.806 158.971 242.806 158.971L247.26 113.321Z" fill="#3F3D56"/>
<path d="M584.342 28.5687H329.373V314.012H584.342V28.5687Z" fill="#F2F2F2"/>
<path d="M376.136 243.764H369.456V242.651H376.136V243.764ZM362.775 243.764H356.095V242.651H362.775V243.764ZM349.415 243.764H342.734V242.651H349.415V243.764ZM336.054 243.764H329.373V242.651H336.054V243.764Z" fill="#E6E6E6"/>
<path d="M469.662 190.981H462.982V189.868H469.662V190.981ZM456.301 190.981H449.621V189.868H456.301V190.981ZM442.94 190.981H436.26V189.868H442.94V190.981ZM429.579 190.981H422.899V189.868H429.579V190.981ZM416.219 190.981H409.538V189.868H416.219V190.981ZM402.858 190.981H396.177V189.868H402.858V190.981ZM389.497 190.981H382.817V189.868H389.497V190.981ZM376.136 190.981H369.456V189.868H376.136V190.981ZM362.775 190.981H356.095V189.868H362.775V190.981ZM349.415 190.981H342.734V189.868H349.415V190.981ZM336.054 190.981H329.373V189.868H336.054V190.981Z" fill="#E6E6E6"/>
<path d="M603.27 158.136H596.59V157.022H603.27V158.136ZM589.909 158.136H583.229V157.022H589.909V158.136ZM576.549 158.136H569.868V157.022H576.549V158.136ZM563.188 158.136H556.507V157.022H563.188V158.136ZM549.827 158.136H543.146V157.022H549.827V158.136ZM536.466 158.136H529.786V157.022H536.466V158.136ZM523.105 158.136H516.425V157.022H523.105V158.136ZM509.744 158.136H503.064V157.022H509.744V158.136ZM496.384 158.136H489.703V157.022H496.384V158.136ZM483.023 158.136H476.342V157.022H483.023V158.136ZM469.662 158.136H462.982V157.022H469.662V158.136ZM456.301 158.136H449.621V157.022H456.301V158.136ZM442.94 158.136H436.26V157.022H442.94V158.136ZM429.579 158.136H422.899V157.022H429.579V158.136ZM416.219 158.136H409.538V157.022H416.219V158.136ZM402.858 158.136H396.177V157.022H402.858V158.136ZM389.497 158.136H382.817V157.022H389.497V158.136ZM376.136 158.136H369.456V157.022H376.136V158.136ZM362.775 158.136H356.095V157.022H362.775V158.136ZM349.415 158.136H342.734V157.022H349.415V158.136ZM336.054 158.136H329.373V157.022H336.054V158.136Z" fill="#E6E6E6"/>
<path d="M380.033 1.02136H378.92V4.36157H380.033V1.02136Z" fill="#E6E6E6"/>
<path d="M380.033 253.999H378.92V247.43H380.033V253.999ZM380.033 240.86H378.92V234.291H380.033V240.86ZM380.033 227.721H378.92V221.152H380.033V227.721ZM380.033 214.583H378.92V208.013H380.033V214.583ZM380.033 201.444H378.92V194.874H380.033V201.444ZM380.033 188.305H378.92V181.736H380.033V188.305ZM380.033 175.166H378.92V168.597H380.033V175.166ZM380.033 162.027H378.92V155.458H380.033V162.027ZM380.033 148.888H378.92V142.319H380.033V148.888ZM380.033 135.75H378.92V129.18H380.033V135.75ZM380.033 122.611H378.92V116.042H380.033V122.611ZM380.033 109.472H378.92V102.903H380.033V109.472ZM380.033 96.3333H378.92V89.7638H380.033V96.3333ZM380.033 83.1943H378.92V76.6251H380.033V83.1943ZM380.033 70.0555H378.92V63.4861H380.033V70.0555ZM380.033 56.9168H378.92V50.3473H380.033V56.9168ZM380.033 43.7778H378.92V37.2085H380.033V43.7778ZM380.033 30.639H378.92V24.0695H380.033V30.639ZM380.033 17.5003H378.92V10.9308H380.033V17.5003Z" fill="#E6E6E6"/>
<path d="M380.033 260.569H378.92V263.909H380.033V260.569Z" fill="#E6E6E6"/>
<path d="M476.899 1.02136H475.786V4.36157H476.899V1.02136Z" fill="#E6E6E6"/>
<path d="M476.899 203.279H475.786V196.648H476.899V203.279ZM476.899 190.017H475.786V183.387H476.899V190.017ZM476.899 176.756H475.786V170.125H476.899V176.756ZM476.899 163.495H475.786V156.864H476.899V163.495ZM476.899 150.234H475.786V143.603H476.899V150.234ZM476.899 136.973H475.786V130.342H476.899V136.973ZM476.899 123.712H475.786V117.081H476.899V123.712ZM476.899 110.45H475.786V103.82H476.899V110.45ZM476.899 97.1892H475.786V90.5585H476.899V97.1892ZM476.899 83.9281H475.786V77.2975H476.899V83.9281ZM476.899 70.6671H475.786V64.0364H476.899V70.6671ZM476.899 57.4058H475.786V50.7754H476.899V57.4058ZM476.899 44.1447H475.786V37.514H476.899V44.1447ZM476.899 30.8836H475.786V24.253H476.899V30.8836ZM476.899 17.6226H475.786V10.9919H476.899V17.6226Z" fill="#E6E6E6"/>
<path d="M476.899 209.909H475.786V213.249H476.899V209.909Z" fill="#E6E6E6"/>
<path d="M329.373 314.012L380.033 263.352L403.136 286.455L476.342 213.249L523.662 260.569L608.837 175.394V314.012H329.373Z" fill="url(#paint0_linear)"/>
<path d="M609.394 314.569H328.817V0.589417H609.394V314.569ZM329.93 313.455H608.281V1.70282H329.93V313.455Z" fill="#3F3D56"/>
<path d="M379.476 249.435C383.473 249.435 386.713 246.195 386.713 242.198C386.713 238.201 383.473 234.961 379.476 234.961C375.479 234.961 372.239 238.201 372.239 242.198C372.239 246.195 375.479 249.435 379.476 249.435Z" fill="#3F3D56"/>
<path d="M476.342 197.662C480.339 197.662 483.579 194.421 483.579 190.424C483.579 186.428 480.339 183.187 476.342 183.187C472.345 183.187 469.105 186.428 469.105 190.424C469.105 194.421 472.345 197.662 476.342 197.662Z" fill="#3F3D56"/>
<path d="M608.837 164.816C612.834 164.816 616.074 161.576 616.074 157.579C616.074 153.582 612.834 150.342 608.837 150.342C604.84 150.342 601.6 153.582 601.6 157.579C601.6 161.576 604.84 164.816 608.837 164.816Z" fill="#3F3D56"/>
<path d="M558.177 45.1255C554.939 46.065 550.595 46.7907 547.379 46.5338L551.575 49.3214L354.094 195.544L354.756 196.439L552.238 50.2161L553.68 55.0441C554.373 51.8931 556.335 47.9499 558.177 45.1255Z" fill="#3F3D56"/>
</g>
<defs>
<linearGradient id="paint0_linear" x1="469.105" y1="175.394" x2="377" y2="299.5" gradientUnits="userSpaceOnUse">
<stop stop-color="#47E6B1"/>
<stop offset="0.960485" stop-color="#4D8AF0"/>
</linearGradient>
<clipPath id="clip0">
<rect width="615.711" height="432" fill="white" transform="translate(0.363037 0.589417)"/>
</clipPath>
</defs>
</svg>
